<?xml version="1.0" encoding="UTF-8" standalone="no"?>
<!-- Uploaded to: SVG Repo, www.svgrepo.com, Generator: SVG Repo Mixer Tools -->

<svg
   fill="#000000"
   height="977.22321"
   width="2193.0635"
   version="1.1"
   id="Capa_1"
   viewBox="0 0 740.3234 329.88612"
   xml:space="preserve"
   sodipodi:docname="hyer-cube.svg"
   inkscape:version="1.3.2 (091e20ef0f, 2023-11-25)"
   xmlns:inkscape="http://www.inkscape.org/namespaces/inkscape"
   xmlns:sodipodi="http://sodipodi.sourceforge.net/DTD/sodipodi-0.dtd"
   xmlns="http://www.w3.org/2000/svg"
   xmlns:svg="http://www.w3.org/2000/svg"><defs
   id="defs1"><marker
     style="overflow:visible"
     id="ArrowTriangleStylized"
     refX="0"
     refY="0"
     orient="auto-start-reverse"
     inkscape:stockid="Stylized triangle arrow"
     markerWidth="1"
     markerHeight="1"
     viewBox="0 0 1 1"
     inkscape:isstock="true"
     inkscape:collect="always"
     preserveAspectRatio="xMidYMid"><path
       transform="scale(0.5)"
       style="fill:context-stroke;fill-rule:evenodd;stroke:context-stroke;stroke-width:1pt"
       d="m 6,0 c -3,1 -7,3 -9,5 0,0 0,-4 2,-5 -2,-1 -2,-5 -2,-5 2,2 6,4 9,5 z"
       id="path11" /></marker></defs><sodipodi:namedview
   id="namedview1"
   pagecolor="#ffffff"
   bordercolor="#999999"
   borderopacity="1"
   inkscape:showpageshadow="2"
   inkscape:pageopacity="0"
   inkscape:pagecheckerboard="0"
   inkscape:deskcolor="#d1d1d1"
   inkscape:zoom="0.55126401"
   inkscape:cx="1955.5059"
   inkscape:cy="740.11725"
   inkscape:window-width="3840"
   inkscape:window-height="2129"
   inkscape:window-x="2560"
   inkscape:window-y="0"
   inkscape:window-maximized="1"
   inkscape:current-layer="Capa_1" />
<path
   color-rendering="auto"
   image-rendering="auto"
   shape-rendering="auto"
   color-interpolation="sRGB"
   d="m 289.55893,30.543568 c -0.181,0.006 -0.362,0.023 -0.541,0.049 h -179.361 c -1.326,0 -2.598,0.527 -3.535,1.465 L 26.121926,112.05757 c -0.936,0.938 -1.462,2.209 -1.461,3.535 v 180 c 0,2.761 2.239,5 5,5 H 209.66093 c 1.326,0 2.598,-0.527 3.535,-1.465 l 80,-80 c 0.938,-0.938 1.465,-2.209 1.465,-3.535 V 36.355568 c 0.14,-0.893 0.035,-1.807 -0.303,-2.645 -0.016,-0.045 -0.033,-0.09 -0.051,-0.135 -0.808,-1.89 -2.69,-3.093 -4.744,-3.033 z m -177.832,10.049 h 165.859 l -70,70.000002 H 41.726926 Z m 172.93,7.07 V 213.52157 l -70,70 v -165.859 z m -175.076,2.859 c -2.759,0.042 -4.963,2.311 -4.924,5.07 v 40 c -0.039,2.761 2.168,5.032002 4.929,5.071002 2.761,0.039 5.032,-2.168002 5.071,-4.929002 10e-4,-0.047 10e-4,-0.094 0,-0.141 v -40 c 0.039,-2.761 -2.168,-5.031 -4.93,-5.07 -0.048,-0.002 -0.097,-0.002 -0.146,-10e-4 z M 34.656926,120.59257 H 204.65693 v 170 H 34.656926 Z m 74.924004,9.929 c -2.759,0.042 -4.963,2.311 -4.924,5.07 v 30 c -0.039,2.761 2.168,5.032 4.929,5.071 2.761,0.039 5.032,-2.168 5.071,-4.929 10e-4,-0.047 10e-4,-0.094 0,-0.141 v -30 c 0.039,-2.761 -2.168,-5.031 -4.93,-5.07 -0.048,-0.002 -0.097,-0.002 -0.146,-0.001 z m 0,60 c -2.759,0.042 -4.963,2.311 -4.924,5.07 v 17.93 l -18.535004,18.535 c -1.992,1.913 -2.057,5.078 -0.144,7.07 1.913,1.992 5.078,2.057 7.07,0.144 0.049,-0.047 0.097,-0.095 0.144,-0.144 l 18.535004,-18.535 h 17.93 c 2.761,0.039 5.032,-2.168 5.071,-4.929 0.039,-2.761 -2.168,-5.032 -4.929,-5.071 -0.047,-10e-4 -0.094,-10e-4 -0.141,0 h -15 v -15 c 0.039,-2.761 -2.168,-5.031 -4.93,-5.07 -0.049,-0.001 -0.098,-0.001 -0.147,0 z m 50.076,20.07 c -2.761,-0.039 -5.032,2.168 -5.071,4.929 -0.039,2.761 2.168,5.032 4.929,5.071 0.047,0.001 0.094,0.001 0.141,0 h 30 c 2.761,0.039 5.032,-2.168 5.071,-4.929 0.039,-2.761 -2.168,-5.032 -4.929,-5.071 -0.047,-10e-4 -0.094,-10e-4 -0.141,0 z m 70,0 c -2.761,-0.039 -5.032,2.168 -5.071,4.929 -0.039,2.761 2.168,5.032 4.929,5.071 0.047,0.001 0.094,0.001 0.141,0 h 40 c 2.761,0.039 5.032,-2.168 5.071,-4.929 0.039,-2.761 -2.168,-5.032 -4.929,-5.071 -0.047,-10e-4 -0.094,-10e-4 -0.141,0 z m -160.098004,39.952 c -1.299,0.039 -2.532,0.582 -3.438,1.514 l -20,20 c -1.992,1.913 -2.057,5.078 -0.144,7.07 1.913,1.992 5.078,2.057 7.07,0.144 0.049,-0.047 0.097,-0.095 0.144,-0.144 l 20,-20 c 1.98,-1.925 2.025,-5.091 0.1,-7.071 -0.976,-1.006 -2.33,-1.555 -3.732,-1.513 z"
   id="path1"
   style="fill:#586e75" />
<text
   xml:space="preserve"
   style="font-size:32.4072px;font-family:'STIX Two Math';-inkscape-font-specification:'STIX Two Math';fill:#586e75;stroke-width:1.27587;stroke-linecap:round;stroke-linejoin:round"
   x="303.33231"
   y="224.08551"
   id="text1"><tspan
     sodipodi:role="line"
     id="tspan1"
     style="font-size:32.4072px;stroke-width:1.27587"
     x="303.33231"
     y="224.08551">A</tspan></text><text
   xml:space="preserve"
   style="font-size:32.4072px;font-family:'STIX Two Math';-inkscape-font-specification:'STIX Two Math';fill:#586e75;stroke-width:1.27587;stroke-linecap:round;stroke-linejoin:round"
   x="-1.62036"
   y="329.52963"
   id="text2"><tspan
     sodipodi:role="line"
     id="tspan2"
     style="font-size:32.4072px;stroke-width:1.27587"
     x="-1.62036"
     y="329.52963">C</tspan></text><text
   xml:space="preserve"
   style="font-size:32.4072px;font-family:'STIX Two Math';-inkscape-font-specification:'STIX Two Math';fill:#586e75;stroke-width:1.27587;stroke-linecap:round;stroke-linejoin:round"
   x="108.66586"
   y="248.05199"
   id="text2-7"><tspan
     sodipodi:role="line"
     id="tspan2-5"
     style="font-size:32.4072px;stroke-width:1.27587"
     x="108.66586"
     y="248.05199">0</tspan></text><text
   xml:space="preserve"
   style="font-size:32.4072px;font-family:'STIX Two Math';-inkscape-font-specification:'STIX Two Math';fill:#586e75;stroke-width:1.27587;stroke-linecap:round;stroke-linejoin:round"
   x="100.82491"
   y="21.291531"
   id="text3"><tspan
     sodipodi:role="line"
     id="tspan3"
     style="font-size:32.4072px;stroke-width:1.27587"
     x="100.82491"
     y="21.291531">B</tspan></text><circle
   style="fill:#dc322f;stroke:#586e75;stroke-width:1.27587;stroke-linecap:round;stroke-linejoin:round"
   id="path3"
   cx="29.34384"
   cy="115.08297"
   r="12.402171" /><circle
   style="fill:#dc322f;stroke:#586e75;stroke-width:1.27587;stroke-linecap:round;stroke-linejoin:round"
   id="path3-6"
   cx="208.92784"
   cy="116.41236"
   r="12.402171" /><path
   style="fill:none;stroke:#dc322f;stroke-width:6.68517;stroke-linecap:round;stroke-linejoin:round"
   d="M 32.924384,115.50261 206.072,115.53631"
   id="path4"
   sodipodi:nodetypes="cc" /><path
   color-rendering="auto"
   image-rendering="auto"
   shape-rendering="auto"
   color-interpolation="sRGB"
   d="m 703.41124,30.543568 c -0.181,0.006 -0.362,0.023 -0.541,0.049 h -179.361 c -1.326,0 -2.598,0.527 -3.535,1.465 l -80,80.000002 c -0.936,0.938 -1.462,2.209 -1.461,3.535 v 180 c 0,2.761 2.239,5 5,5 h 180 c 1.326,0 2.598,-0.527 3.535,-1.465 l 80,-80 c 0.938,-0.938 1.465,-2.209 1.465,-3.535 V 36.355568 c 0.14,-0.893 0.035,-1.807 -0.303,-2.645 -0.016,-0.045 -0.033,-0.09 -0.051,-0.135 -0.808,-1.89 -2.69,-3.093 -4.744,-3.033 z m -177.832,10.049 h 165.859 l -70,70.000002 h -165.859 z m 172.93,7.07 V 213.52157 l -70,70 v -165.859 z m -175.076,2.859 c -2.759,0.042 -4.963,2.311 -4.924,5.07 v 40 c -0.039,2.761 2.168,5.032002 4.929,5.071002 2.761,0.039 5.032,-2.168002 5.071,-4.929002 10e-4,-0.047 10e-4,-0.094 0,-0.141 v -40 c 0.039,-2.761 -2.168,-5.031 -4.93,-5.07 -0.048,-0.002 -0.097,-0.002 -0.146,-10e-4 z m -74.924,70.071002 h 170 v 170 h -170 z m 74.924,9.929 c -2.759,0.042 -4.963,2.311 -4.924,5.07 v 30 c -0.039,2.761 2.168,5.032 4.929,5.071 2.761,0.039 5.032,-2.168 5.071,-4.929 10e-4,-0.047 10e-4,-0.094 0,-0.141 v -30 c 0.039,-2.761 -2.168,-5.031 -4.93,-5.07 -0.048,-0.002 -0.097,-0.002 -0.146,-0.001 z m 0,60 c -2.759,0.042 -4.963,2.311 -4.924,5.07 v 17.93 l -18.535,18.535 c -1.992,1.913 -2.057,5.078 -0.144,7.07 1.913,1.992 5.078,2.057 7.07,0.144 0.049,-0.047 0.097,-0.095 0.144,-0.144 l 18.535,-18.535 h 17.93 c 2.761,0.039 5.032,-2.168 5.071,-4.929 0.039,-2.761 -2.168,-5.032 -4.929,-5.071 -0.047,-10e-4 -0.094,-10e-4 -0.141,0 h -15 v -15 c 0.039,-2.761 -2.168,-5.031 -4.93,-5.07 -0.049,-0.001 -0.098,-0.001 -0.147,0 z m 50.076,20.07 c -2.761,-0.039 -5.032,2.168 -5.071,4.929 -0.039,2.761 2.168,5.032 4.929,5.071 0.047,0.001 0.094,0.001 0.141,0 h 30 c 2.761,0.039 5.032,-2.168 5.071,-4.929 0.039,-2.761 -2.168,-5.032 -4.929,-5.071 -0.047,-10e-4 -0.094,-10e-4 -0.141,0 z m 70,0 c -2.761,-0.039 -5.032,2.168 -5.071,4.929 -0.039,2.761 2.168,5.032 4.929,5.071 0.047,0.001 0.094,0.001 0.141,0 h 40 c 2.761,0.039 5.032,-2.168 5.071,-4.929 0.039,-2.761 -2.168,-5.032 -4.929,-5.071 -0.047,-10e-4 -0.094,-10e-4 -0.141,0 z m -160.098,39.952 c -1.299,0.039 -2.532,0.582 -3.438,1.514 l -20,20 c -1.992,1.913 -2.057,5.078 -0.144,7.07 1.913,1.992 5.078,2.057 7.07,0.144 0.049,-0.047 0.097,-0.095 0.144,-0.144 l 20,-20 c 1.98,-1.925 2.025,-5.091 0.1,-7.071 -0.976,-1.006 -2.33,-1.555 -3.732,-1.513 z"
   id="path5"
   style="fill:#586e75" /><text
   xml:space="preserve"
   style="font-size:32.4072px;font-family:'STIX Two Math';-inkscape-font-specification:'STIX Two Math';fill:#586e75;stroke-width:1.27587;stroke-linecap:round;stroke-linejoin:round"
   x="717.18463"
   y="224.08551"
   id="text5"><tspan
     sodipodi:role="line"
     id="tspan5"
     style="font-size:32.4072px;stroke-width:1.27587"
     x="717.18463"
     y="224.08551">A</tspan></text><text
   xml:space="preserve"
   style="font-size:32.4072px;font-family:'STIX Two Math';-inkscape-font-specification:'STIX Two Math';fill:#586e75;stroke-width:1.27587;stroke-linecap:round;stroke-linejoin:round"
   x="412.23196"
   y="329.52963"
   id="text6"><tspan
     sodipodi:role="line"
     id="tspan6"
     style="font-size:32.4072px;stroke-width:1.27587"
     x="412.23196"
     y="329.52963">C</tspan></text><text
   xml:space="preserve"
   style="font-size:32.4072px;font-family:'STIX Two Math';-inkscape-font-specification:'STIX Two Math';fill:#586e75;stroke-width:1.27587;stroke-linecap:round;stroke-linejoin:round"
   x="370.03357"
   y="161.6225"
   id="text6-7"><tspan
     sodipodi:role="line"
     id="tspan6-9"
     style="font-size:32.4072px;stroke-width:1.27587"
     x="370.03357"
     y="161.6225">D</tspan></text><text
   xml:space="preserve"
   style="font-size:32.4072px;font-family:'STIX Two Math';-inkscape-font-specification:'STIX Two Math';fill:#586e75;stroke-width:1.27587;stroke-linecap:round;stroke-linejoin:round"
   x="522.51819"
   y="248.05199"
   id="text7"><tspan
     sodipodi:role="line"
     id="tspan7"
     style="font-size:32.4072px;stroke-width:1.27587"
     x="522.51819"
     y="248.05199">0</tspan></text><text
   xml:space="preserve"
   style="font-size:32.4072px;font-family:'STIX Two Math';-inkscape-font-specification:'STIX Two Math';fill:#586e75;stroke-width:1.27587;stroke-linecap:round;stroke-linejoin:round"
   x="514.67725"
   y="21.291531"
   id="text8"><tspan
     sodipodi:role="line"
     id="tspan8"
     style="font-size:32.4072px;stroke-width:1.27587"
     x="514.67725"
     y="21.291531">B</tspan></text><circle
   style="fill:#dc322f;stroke:#586e75;stroke-width:1.27587;stroke-linecap:round;stroke-linejoin:round"
   id="circle8"
   cx="443.19617"
   cy="115.08297"
   r="12.402171" /><circle
   style="fill:#dc322f;stroke:#586e75;stroke-width:1.27587;stroke-linecap:round;stroke-linejoin:round"
   id="circle8-2"
   cx="699.86975"
   cy="39.688972"
   r="12.402171" /><circle
   style="fill:#dc322f;stroke:#586e75;stroke-width:1.27587;stroke-linecap:round;stroke-linejoin:round"
   id="circle9"
   cx="622.78015"
   cy="116.41236"
   r="12.402171" /><path
   style="fill:none;stroke:#dc322f;stroke-width:6.70436;stroke-linecap:round;stroke-linejoin:round"
   d="m 215.44965,115.51221 404.46506,0.0145"
   id="path9"
   sodipodi:nodetypes="cc" /><path
   style="fill:none;stroke:#073642;stroke-width:6.44768;stroke-linecap:round;stroke-linejoin:round;stroke-dasharray:none;marker-end:url(#ArrowTriangleStylized)"
   d="m 356.61642,186.90172 c 31.76618,0 31.76618,0 31.76618,0"
   id="path10" /></svg>
